<svg width="1251" height="203" viewBox="0 0 1251 203" fill="none" xmlns="http://www.w3.org/2000/svg">
<g opacity="0.5">
<rect y="1.52588e-05" width="1249.19" height="203" rx="8" fill="#68C3D4" fill-opacity="0.29"/>
<rect x="86.9001" y="203" width="19.1109" height="81.4689" transform="rotate(-90 86.9001 203)" fill="#68C3D4" fill-opacity="0.29"/>
<rect x="86.9001" y="183.889" width="19.1109" height="81.4689" transform="rotate(-90 86.9001 183.889)" fill="white"/>
<rect x="168.369" y="183.889" width="19.1109" height="81.4689" transform="rotate(-90 168.369 183.889)" fill="white" fill-opacity="0.9"/>
<rect x="86.9001" y="164.778" width="19.1109" height="81.4689" transform="rotate(-90 86.9001 164.778)" fill="white" fill-opacity="0.9"/>
<rect x="86.9001" y="145.667" width="19.1109" height="81.4689" transform="rotate(-90 86.9001 145.667)" fill="white"/>
<rect x="5.43121" y="145.667" width="19.1109" height="81.4689" transform="rotate(-90 5.43121 145.667)" fill="white" fill-opacity="0.9"/>
<rect x="245.249" y="203" width="19.1109" height="81.4689" transform="rotate(-90 245.249 203)" fill="white" fill-opacity="0.9"/>
<rect x="1168.56" width="19.1109" height="81.4689" transform="rotate(90 1168.56 0)" fill="#68C3D4" fill-opacity="0.29"/>
<rect x="1168.56" y="19.1109" width="19.1109" height="81.4689" transform="rotate(90 1168.56 19.1109)" fill="white"/>
<rect x="1087.09" y="19.1109" width="19.1109" height="81.4689" transform="rotate(90 1087.09 19.1109)" fill="white" fill-opacity="0.9"/>
<rect x="1168.56" y="38.2218" width="19.1109" height="81.4689" transform="rotate(90 1168.56 38.2218)" fill="white" fill-opacity="0.9"/>
<rect x="1168.56" y="57.3326" width="19.1109" height="81.4689" transform="rotate(90 1168.56 57.3326)" fill="white"/>
<rect x="1250.03" y="57.3326" width="19.1109" height="81.4689" transform="rotate(90 1250.03 57.3326)" fill="white" fill-opacity="0.9"/>
<rect x="1010.21" y="-7.62939e-06" width="19.1109" height="81.469" transform="rotate(90 1010.21 -7.62939e-06)" fill="white" fill-opacity="0.9"/>
<path d="M394.537 181.28C395.885 179.226 397.71 177.723 400.004 177.161C402.004 176.671 404.061 176.754 406.094 176.771L431.805 176.987C434.007 177.006 436.118 179.081 436.016 181.569C435.914 184.035 434.165 186.17 431.805 186.15C424.273 186.087 416.742 186.024 409.211 185.961C407.435 185.946 405.658 185.911 403.883 185.917C403.484 185.919 403.087 185.942 402.689 185.946C402.592 185.948 402.522 185.947 402.473 185.944C402.461 185.949 402.45 185.952 402.434 185.957C402.227 186.019 402.013 186.062 401.804 186.121C401.878 186.123 401.669 186.265 401.564 186.313C401.549 186.344 401.519 186.399 401.467 186.483C401.396 186.63 401.184 187.073 401.175 187.059C400.857 187.935 400.594 188.834 400.389 189.749C399.9 191.767 399.792 192.188 399.722 194.082C399.633 196.473 397.849 198.777 395.511 198.663C393.306 198.556 391.205 196.647 391.3 194.082C391.461 189.759 392.158 184.904 394.537 181.28Z" fill="#004D61"/>
<path d="M430.294 191.618C430.777 188.434 431.25 185.248 431.743 182.066C432.242 178.838 433.262 175.881 435.571 173.763C436.188 173.197 436.828 172.668 437.47 172.141C437.696 171.956 437.922 171.77 438.145 171.581C438.158 171.57 438.167 171.563 438.179 171.553C438.203 171.53 438.233 171.503 438.272 171.466C439.234 170.58 440.164 169.654 441.05 168.671C441.837 167.797 442.589 166.886 443.307 165.937C443.486 165.701 443.663 165.462 443.838 165.22C443.868 165.179 444.03 164.951 444.137 164.803C444.236 164.654 444.417 164.385 444.448 164.339C444.652 164.024 444.852 163.707 445.049 163.387C446.391 161.201 447.552 158.89 448.52 156.482C448.616 156.243 448.71 156.003 448.801 155.761C448.826 155.687 448.857 155.593 448.9 155.467C449.095 154.883 449.289 154.3 449.468 153.709C449.847 152.455 450.172 151.182 450.445 149.891C450.58 149.253 450.701 148.612 450.809 147.968C450.865 147.637 450.917 147.305 450.965 146.972C450.973 146.917 451.021 146.558 451.048 146.355C451.069 146.151 451.107 145.79 451.112 145.735C451.143 145.399 451.171 145.064 451.195 144.728C451.248 143.972 451.285 143.215 451.304 142.456C451.336 141.108 451.314 139.76 451.237 138.412C451.194 137.655 451.131 136.9 451.055 136.146C451.05 136.1 451.047 136.063 451.043 136.03C451.039 135.996 451.033 135.958 451.027 135.91C450.97 135.493 450.91 135.077 450.844 134.663C450.591 133.088 450.263 131.528 449.86 129.991C449.669 129.264 449.462 128.543 449.238 127.828C449.138 127.51 449.035 127.194 448.929 126.879C448.936 126.899 448.618 126.015 448.614 125.986C447.352 122.742 445.288 119.784 445.285 116.099C445.283 113.604 447.223 111.214 449.496 111.329C450.629 111.376 451.701 111.899 452.487 112.789C453.272 113.678 453.71 114.865 453.707 116.099C453.707 116.155 453.707 116.203 453.707 116.249C453.728 116.327 453.746 116.392 453.762 116.449C454.008 117.031 454.31 117.584 454.58 118.151C455.319 119.704 455.951 121.308 456.55 122.936C457.532 125.586 458.284 128.33 458.795 131.133C459.907 137.274 459.993 143.583 459.05 149.757C457.417 160.585 452.033 170.95 444.548 177.917C443.898 178.521 443.233 179.106 442.561 179.678C442.283 179.915 442.003 180.147 441.721 180.378C441.588 180.488 441.037 180.961 441.279 180.731C440.757 181.216 440.538 181.46 440.404 181.817C440.384 181.899 440.358 182.011 440.322 182.163C440.228 182.566 440.138 182.967 440.063 183.375C439.412 186.941 438.959 190.566 438.415 194.154C438.041 196.62 435.251 198.225 433.235 197.486C430.888 196.626 429.893 194.26 430.294 191.618Z" fill="#004D61"/>
<path d="M394.111 200.866C395.88 200.871 397.578 200.113 398.833 198.757C400.088 197.402 400.798 195.56 400.806 193.636V188.41C405.836 189.022 423.057 188.88 427.993 188.017V193.427C428.006 195.349 428.718 197.188 429.972 198.543C431.226 199.897 432.921 200.657 434.688 200.657C436.455 200.657 438.151 199.897 439.405 198.543C440.659 197.188 441.371 195.349 441.384 193.427V182.806C448.07 178.764 453.643 172.855 457.53 165.688C461.416 158.521 463.474 150.355 463.491 142.033C463.491 127.764 457.548 114.454 447.185 105.514C440.447 99.6819 432.26 96.1745 423.677 95.4422C422.512 95.3428 421.339 95.2925 420.192 95.2925C416.152 95.2925 397.922 95.9716 393.349 97.4033L382.919 86.1436C382.766 85.9758 382.57 85.8615 382.357 85.8153C382.144 85.769 381.922 85.7929 381.722 85.8839C381.519 85.9715 381.346 86.1235 381.225 86.3201C381.104 86.5167 381.04 86.7486 381.042 86.9854V88.7757L379.011 86.5874C378.858 86.4194 378.662 86.305 378.449 86.2586C378.236 86.2123 378.015 86.2362 377.814 86.3273C377.612 86.4148 377.438 86.5669 377.317 86.7635C377.195 86.9602 377.131 87.1923 377.133 87.4292V107.435C371.9 112.568 367.911 119.027 365.521 126.238C363.13 133.45 362.412 141.191 363.428 148.777C364.445 156.363 367.167 163.559 371.351 169.727C375.535 175.895 381.053 180.845 387.416 184.138V193.636C387.425 195.56 388.134 197.402 389.389 198.757C390.645 200.113 392.343 200.871 394.111 200.866ZM400.28 187.76V193.636C400.267 195.407 399.611 197.1 398.456 198.347C397.3 199.594 395.739 200.293 394.111 200.293C392.484 200.293 390.922 199.594 389.767 198.347C388.611 197.1 387.955 195.407 387.942 193.636V183.776L387.792 183.699C380.652 180.012 374.592 174.246 370.282 167.038C364.791 157.841 362.507 146.809 363.845 135.939C365.182 125.068 370.051 115.078 377.572 107.776L377.66 107.69V87.4292C377.658 87.3061 377.691 87.1853 377.754 87.0832C377.817 86.981 377.907 86.9023 378.013 86.8578C378.118 86.809 378.234 86.7958 378.345 86.82C378.457 86.8442 378.56 86.9046 378.639 86.9933L381.568 90.149V86.9854C381.566 86.8623 381.599 86.7415 381.662 86.6394C381.725 86.5372 381.816 86.4585 381.921 86.414C382.026 86.3653 382.142 86.3523 382.254 86.3766C382.366 86.401 382.469 86.4616 382.549 86.5505L393.201 98.0512L393.353 97.9996C397.605 96.5517 416.121 95.8652 420.192 95.8652C421.326 95.8652 422.484 95.9149 423.635 96.0132C432.115 96.7365 440.202 100.201 446.858 105.963C457.094 114.793 462.965 127.94 462.965 142.033C462.947 150.281 460.9 158.373 457.037 165.47C453.173 172.566 447.633 178.407 440.993 182.387L440.857 182.468V193.427C440.844 195.197 440.188 196.89 439.033 198.137C437.877 199.384 436.316 200.083 434.688 200.083C433.061 200.083 431.5 199.384 430.344 198.137C429.189 196.89 428.533 195.197 428.519 193.427V187.332L428.208 187.395C423.771 188.304 405.092 188.447 400.578 187.802L400.28 187.76Z" fill="#3F3D56"/>
<path d="M429.791 64.1091L458.935 73.6388C459.862 73.9431 460.64 74.6353 461.099 75.5634C461.557 76.4915 461.658 77.5795 461.379 78.5885C461.1 79.5974 460.465 80.4447 459.613 80.9443C458.76 81.4439 457.76 81.5548 456.833 81.2528L431.328 72.9114L430.793 72.7367C430.685 69.7411 429.938 66.8139 428.612 64.1864C428.778 64.1049 428.956 64.0545 429.138 64.0375C429.358 64.0143 429.58 64.0387 429.791 64.1091Z" fill="#E6E6E6"/>
<path d="M457.337 83.2845C457.724 83.2834 458.1 83.1502 458.414 82.9035C458.727 82.6568 458.962 82.3091 459.084 81.9096L460.906 75.9261C460.982 75.6762 461.012 75.4125 460.995 75.15C460.977 74.8874 460.912 74.6312 460.804 74.396C460.695 74.1607 460.545 73.9511 460.362 73.779C460.179 73.6068 459.966 73.4757 459.737 73.3929L436.016 64.8396C435.786 64.7568 435.544 64.724 435.303 64.7431C435.061 64.7622 434.826 64.8328 434.61 64.9509C434.393 65.069 434.201 65.2323 434.042 65.4315C433.884 65.6306 433.764 65.8617 433.688 66.1116L431.865 72.0951C431.713 72.5872 431.744 73.1243 431.95 73.5924C432.156 74.0606 432.521 74.4232 432.969 74.6033C432.991 74.6122 433.013 74.6207 433.035 74.6286L456.755 83.1816C456.943 83.2496 457.139 83.2843 457.337 83.2845Z" fill="#637081"/>
<path d="M412.913 53.4827C417.7 53.4847 422.299 55.5136 425.736 59.1398C429.173 62.766 431.179 67.705 431.328 72.9114C431.333 73.1148 431.336 73.3209 431.336 73.5271C431.336 77.4915 430.255 81.3669 428.231 84.6631C426.206 87.9594 423.329 90.5286 419.963 92.0457C416.597 93.5628 412.892 93.9597 409.319 93.1863C405.745 92.4129 402.462 90.5039 399.886 87.7006C397.31 84.8974 395.555 81.3258 394.844 77.4376C394.133 73.5493 394.498 69.5191 395.892 65.8565C397.287 62.1938 399.648 59.0633 402.678 56.8608C405.707 54.6583 409.269 53.4827 412.913 53.4827ZM412.913 92.9988C417.658 92.9934 422.207 90.9402 425.562 87.2897C428.917 83.6392 430.804 78.6897 430.809 73.5271C430.809 73.2608 430.804 72.9974 430.793 72.7368C430.651 68.9226 429.481 65.2381 427.429 62.1414C425.378 59.0448 422.535 56.6727 419.254 55.32C415.973 53.9673 412.399 53.6938 408.976 54.5334C405.554 55.3729 402.433 57.2886 400.003 60.0422C397.573 62.7958 395.941 66.2659 395.309 70.0208C394.677 73.7757 395.074 77.6499 396.449 81.1617C397.825 84.6734 400.119 87.6677 403.046 89.7723C405.973 91.8769 409.404 92.9989 412.913 92.9988Z" fill="#3F3D56"/>
<path d="M397.385 73.5271C397.385 78.0078 399.021 82.305 401.933 85.4733C404.845 88.6417 408.795 90.4216 412.913 90.4216C417.031 90.4216 420.98 88.6417 423.892 85.4733C426.804 82.305 428.44 78.0078 428.44 73.5271C428.44 72.9916 428.417 72.4647 428.372 71.9436C427.998 67.6192 426.107 63.6178 423.093 60.7702C420.079 57.9225 416.172 56.4475 412.184 56.6512C408.197 56.855 404.434 58.722 401.678 61.8645C398.923 65.007 397.385 69.1836 397.385 73.5271Z" fill="#E6E6E6"/>
<path d="M408.289 74.6496C408.665 74.1111 409.16 73.6847 409.728 73.4097C410.429 73.0884 411.152 72.8298 411.892 72.6365V68.0378C410.755 68.2242 409.69 68.7529 408.815 69.564L407.957 67.5739C408.451 67.0956 409.017 66.7147 409.631 66.4486C410.311 66.1488 411.026 65.9494 411.755 65.8558V63.5249H413.742V65.8787C414.509 65.9725 415.249 66.2429 415.913 66.6719C416.513 67.0581 417.017 67.5965 417.384 68.2411C417.734 68.8702 417.916 69.5932 417.908 70.3286C417.942 71.1254 417.73 71.9118 417.305 72.5621C416.914 73.1251 416.398 73.5705 415.805 73.8564C415.093 74.1871 414.357 74.4524 413.605 74.6496V79.0565C414.946 78.9464 416.224 78.3917 417.266 77.4672L418.124 79.4602C417.541 79.9844 416.878 80.3934 416.166 80.6686C415.385 80.9726 414.569 81.1576 413.742 81.2184V83.5292H411.755V81.1754C410.651 81.0442 409.616 80.5279 408.805 79.7036C408.447 79.3307 408.165 78.881 407.975 78.3832C407.786 77.8854 407.694 77.3502 407.704 76.8115C407.671 76.04 407.877 75.2788 408.289 74.6496ZM413.605 72.1497C414.089 71.99 414.539 71.7272 414.929 71.3766C415.083 71.2271 415.205 71.0422 415.286 70.8353C415.367 70.6283 415.405 70.4044 415.397 70.1797C415.412 69.6697 415.239 69.1743 414.918 68.8023C414.562 68.4121 414.103 68.1528 413.605 68.0607V72.1497ZM410.644 78.2432C410.98 78.6179 411.417 78.8657 411.892 78.9505V75.1593C411.438 75.2917 411.014 75.5225 410.644 75.8379C410.504 75.9681 410.393 76.1309 410.318 76.3144C410.244 76.4978 410.209 76.6971 410.215 76.8974C410.197 77.3888 410.35 77.8696 410.644 78.2432Z" fill="#004D61"/>
<path d="M456.491 107.535C456.897 107.534 457.293 107.388 457.615 107.117C457.937 106.847 458.169 106.469 458.274 106.041L459.266 101.955C459.39 101.442 459.322 100.895 459.077 100.436C458.831 99.9774 458.428 99.643 457.957 99.5066L426.654 90.5068C426.181 90.3727 425.679 90.4476 425.257 90.7151C424.836 90.9827 424.529 91.421 424.403 91.9344L423.563 95.3963L423.72 95.4095C431.748 96.0887 439.43 99.2557 445.856 104.536L445.901 104.56L456.023 107.469C456.176 107.513 456.333 107.535 456.491 107.535Z" fill="#637081"/>
<path d="M461.675 127.719C465.347 127.128 468.859 125.684 471.971 123.483C473.513 122.393 474.941 121.123 476.228 119.695C477.499 118.285 478.714 116.682 479.343 114.804C479.949 113.067 479.918 111.143 479.256 109.43C478.604 107.727 477.357 106.376 475.79 105.671C474.214 104.987 472.31 104.914 470.775 105.663C470.044 106.012 469.412 106.566 468.943 107.269C468.724 107.592 468.563 107.957 468.466 108.345C468.376 108.696 468.368 109.066 468.442 109.421C468.532 109.776 468.691 110.106 468.908 110.388C469.124 110.671 469.394 110.9 469.699 111.06C470.369 111.434 471.096 111.675 471.844 111.772C472.597 111.883 473.678 111.985 474.283 111.328C474.408 111.198 474.506 111.04 474.571 110.866C474.616 110.733 474.632 110.59 474.616 110.449C474.625 110.511 474.58 110.314 474.582 110.322C474.592 110.351 474.633 110.422 474.574 110.313C474.556 110.277 474.536 110.242 474.513 110.209C474.533 110.237 474.577 110.284 474.499 110.203C474.434 110.126 474.35 110.07 474.258 110.041C474.222 110.03 474.185 110.021 474.148 110.01C474.055 109.982 474.241 110.011 474.146 110.008C474.109 110.007 474.072 110.008 474.035 110.006C473.942 110.001 474.127 109.978 474.038 110.003C474.003 110.012 473.969 110.022 473.935 110.033C473.861 110.059 473.987 109.974 473.937 110.037C473.878 110.112 473.999 109.965 473.932 110.037C473.899 110.073 473.867 110.11 473.838 110.15C473.722 110.275 473.565 110.345 473.402 110.345C473.238 110.345 473.082 110.275 472.965 110.15C472.853 110.022 472.791 109.852 472.791 109.675C472.791 109.499 472.853 109.329 472.965 109.201C473.574 108.38 474.775 108.583 475.391 109.276C476.175 110.161 475.865 111.562 475.101 112.334C474.237 113.208 473.013 113.268 471.901 113.122C470.962 113.024 470.046 112.742 469.199 112.291C468.357 111.841 467.698 111.066 467.35 110.118C467.193 109.612 467.137 109.075 467.185 108.544C467.233 108.012 467.384 107.498 467.628 107.034C468.61 105.027 470.642 103.997 472.651 103.819C473.685 103.731 474.725 103.867 475.711 104.219C476.697 104.571 477.608 105.132 478.393 105.87C479.906 107.352 480.838 109.41 480.996 111.619C481.171 113.908 480.354 116.132 479.164 117.98C477.918 119.857 476.431 121.53 474.748 122.949C471.458 125.806 467.6 127.786 463.481 128.73C462.991 128.84 462.498 128.935 462.003 129.013C461.845 129.055 461.679 129.029 461.538 128.942C461.397 128.855 461.292 128.713 461.244 128.544C461.202 128.373 461.223 128.19 461.304 128.035C461.385 127.881 461.518 127.767 461.675 127.719L461.675 127.719Z" fill="#3F3D56"/>
<path d="M402.884 98.5465C408.264 98.4639 413.627 98.6125 418.973 98.9922C420.801 99.122 422.382 99.8247 422.382 101.006C422.382 101.993 420.813 103.15 418.973 103.019C413.63 102.64 408.267 102.491 402.884 102.574C398.496 102.641 398.499 98.6139 402.884 98.5465Z" fill="#CCCCCC"/>
<path d="M410.836 102.374C411.417 102.374 425.076 102.351 425.076 100.298C425.076 98.2455 411.417 98.2218 410.836 98.2218C410.255 98.2218 396.596 98.2455 396.596 100.298C396.596 102.351 410.255 102.374 410.836 102.374ZM424.541 100.298C424.168 100.92 419.147 101.802 410.836 101.802C402.525 101.802 397.504 100.92 397.13 100.298C397.504 99.6758 402.525 98.7945 410.836 98.7945C419.147 98.7945 424.168 99.6758 424.541 100.298V100.298Z" fill="#3F3D56"/>
<path d="M452.033 116.688C452.471 116.687 452.895 116.515 453.228 116.205C453.561 115.894 453.781 115.465 453.85 114.994L454.451 110.818C454.526 110.293 454.407 109.757 454.119 109.328C453.831 108.898 453.399 108.611 452.916 108.528L420.931 103.075C420.449 102.993 419.956 103.123 419.561 103.436C419.167 103.749 418.902 104.22 418.826 104.745L418.225 108.921C418.15 109.446 418.269 109.982 418.557 110.411C418.845 110.841 419.277 111.128 419.76 111.211L451.745 116.664C451.84 116.68 451.936 116.688 452.033 116.688Z" fill="#637081"/>
<path d="M465.27 67.7563C457.857 67.7563 451.847 61.218 451.847 53.1526C451.847 45.0872 457.857 38.5488 465.27 38.5488C472.683 38.5488 478.692 45.0872 478.692 53.1526C478.692 61.218 472.683 67.7563 465.27 67.7563Z" fill="#E6E6E6"/>
<path d="M457.67 56.9312C457.241 56.768 456.849 56.5067 456.521 56.1649C456.304 55.9213 456.138 55.6288 456.035 55.3082C455.933 54.9875 455.896 54.6463 455.928 54.3085C455.946 54.0678 456.015 53.8349 456.13 53.628C456.244 53.4212 456.401 53.246 456.589 53.1161C457.074 52.7911 457.716 52.8034 458.364 53.1303L458.439 47.4297L458.965 47.4378L458.878 54.1395L458.477 53.8536C458.012 53.5226 457.345 53.2826 456.864 53.604C456.746 53.6891 456.647 53.8028 456.575 53.9364C456.503 54.07 456.46 54.2198 456.451 54.3741C456.428 54.6258 456.456 54.8797 456.532 55.1185C456.609 55.3573 456.731 55.5755 456.892 55.7582C457.462 56.3742 458.307 56.5806 459.271 56.7694L459.177 57.3329C458.665 57.2483 458.161 57.1138 457.67 56.9312Z" fill="#637081"/>
<path d="M453.019 47.0295L455.822 47.4914L455.743 48.0576L452.94 47.5957L453.019 47.0295Z" fill="#637081"/>
<path d="M461.867 48.487L464.67 48.9489L464.591 49.5151L461.788 49.0532L461.867 48.487Z" fill="#637081"/>
<path d="M456.4 116.433C456.882 116.432 457.353 116.271 457.75 115.971C458.146 115.672 458.45 115.248 458.619 114.756L467.874 87.7914C469.005 84.4843 468.884 80.824 467.538 77.6137C466.192 74.4034 463.73 71.9051 460.693 70.6671L453.168 67.61C452.877 67.491 452.567 67.4357 452.257 67.4475C451.946 67.4592 451.641 67.5377 451.358 67.6784C451.076 67.8154 450.822 68.0123 450.611 68.2574C450.399 68.5026 450.235 68.7911 450.127 69.106L432.985 104.322C432.873 104.64 432.821 104.978 432.83 105.318C432.84 105.658 432.911 105.992 433.039 106.302C433.168 106.611 433.351 106.89 433.58 107.123C433.808 107.355 434.076 107.536 434.368 107.655L455.572 116.269C455.836 116.377 456.117 116.433 456.4 116.433Z" fill="#637081"/>
<path d="M455.451 68.5374L438.442 93.2853L449.951 68.7972C450.046 68.5115 450.192 68.2489 450.381 68.0245C450.569 67.8001 450.796 67.6183 451.049 67.4895C451.302 67.3606 451.576 67.2872 451.855 67.2735C452.134 67.2598 452.413 67.306 452.675 67.4095L455.451 68.5374Z" fill="#E6E6E6"/>
<path d="M428.519 87.3319L458.889 85.2035C459.368 85.1699 459.836 85.0341 460.266 84.8038C460.697 84.5735 461.081 84.2532 461.398 83.8612C461.715 83.4692 461.957 83.0131 462.112 82.5191C462.267 82.0251 462.33 81.5027 462.3 80.9819C462.269 80.461 462.144 79.9519 461.932 79.4835C461.721 79.0152 461.426 78.5968 461.066 78.2522C460.706 77.9076 460.286 77.6437 459.832 77.4753C459.378 77.307 458.898 77.2376 458.42 77.2712L428.05 79.3995C427.825 79.4152 427.606 79.4788 427.405 79.5866C427.203 79.6945 427.023 79.8445 426.875 80.028C426.726 80.2116 426.613 80.4252 426.54 80.6566C426.468 80.8879 426.438 81.1326 426.452 81.3765L426.702 85.5941C426.731 86.0868 426.939 86.5466 427.28 86.8725C427.621 87.1984 428.066 87.3636 428.519 87.3319Z" fill="#E6E6E6"/>
<path d="M436.635 88.6964C436.675 88.6964 436.715 88.695 436.755 88.6922L461.693 86.9445C461.935 86.9276 462.171 86.8591 462.388 86.743C462.605 86.6269 462.799 86.4653 462.959 86.2676C463.118 86.0699 463.241 85.8399 463.319 85.5908C463.397 85.3416 463.429 85.0782 463.413 84.8155L462.987 77.6115C462.971 77.3488 462.908 77.092 462.802 76.8558C462.695 76.6196 462.546 76.4086 462.365 76.2348C462.183 76.061 461.972 75.9279 461.743 75.843C461.514 75.7581 461.271 75.7232 461.03 75.7401L436.092 77.4877C435.605 77.5225 435.15 77.7661 434.827 78.1653C434.505 78.5644 434.341 79.0864 434.372 79.6167L434.798 86.8209C434.822 87.2069 434.947 87.5773 435.159 87.8877C435.372 88.1981 435.662 88.4353 435.995 88.5707C436.199 88.654 436.416 88.6966 436.635 88.6964Z" fill="#637081"/>
<path d="M465.423 43.4413C463.658 41.789 461.233 43.2671 459.208 43.0084C457.271 42.7608 455.741 40.87 455.35 38.8614C454.894 36.5179 456.012 34.1701 457.66 32.709C459.465 31.1087 461.858 30.6493 464.126 30.9453C466.726 31.2847 469.104 32.6031 471.237 34.1978C473.296 35.6895 475.19 37.4353 476.88 39.4005C478.393 41.2193 479.676 43.3873 480.085 45.8347C480.457 48.0589 480.173 50.5237 478.965 52.4079C478.324 53.3736 477.465 54.1434 476.471 54.6429C475.435 55.1965 474.33 55.5923 473.326 56.2183C471.808 57.1648 470.333 59.1273 470.808 61.1695C470.91 61.6157 471.111 62.0277 471.394 62.3693C471.734 62.7796 472.346 62.2375 472.006 61.8261C471.408 61.1036 471.431 60.1401 471.75 59.2775C472.129 58.3056 472.8 57.5025 473.654 56.9999C474.704 56.3461 475.865 55.9426 476.942 55.3472C477.973 54.8032 478.868 53.9963 479.55 52.9952C480.839 51.046 481.225 48.5093 480.933 46.1626C480.616 43.6231 479.417 41.3155 477.914 39.3817C476.278 37.2772 474.268 35.4958 472.215 33.8955C470.012 32.1783 467.579 30.7265 464.886 30.2015C462.551 29.7463 460.021 30.0265 457.979 31.4107C456.074 32.7027 454.613 34.9253 454.467 37.4087C454.415 38.5387 454.641 39.6634 455.121 40.6671C455.601 41.6707 456.318 42.5171 457.198 43.1191C458.102 43.7073 459.152 43.9721 460.201 43.876C461.323 43.7979 462.445 43.4242 463.574 43.528C464.085 43.5617 464.572 43.7757 464.961 44.1375C465.346 44.4985 465.806 43.7994 465.423 43.4413V43.4413Z" fill="#637081"/>
<path d="M310.968 201H505.273C505.356 201 505.435 200.964 505.494 200.9C505.552 200.836 505.585 200.749 505.585 200.659C505.585 200.569 505.552 200.482 505.494 200.418C505.435 200.354 505.356 200.318 505.273 200.318H310.968C310.885 200.318 310.805 200.354 310.746 200.418C310.687 200.482 310.654 200.569 310.654 200.659C310.654 200.749 310.687 200.836 310.746 200.9C310.805 200.964 310.885 201 310.968 201Z" fill="#3F3D56"/>
<path d="M363.692 133.797L359.408 133.373C357.644 133.199 356.115 134.584 356.115 136.356V145.137C356.115 147.026 357.841 148.444 359.695 148.077L363.692 147.287" stroke="#3F3D56" stroke-width="0.562076"/>
</g>
</svg>
