<svg width="1251" height="203" viewBox="0 0 1251 203" fill="none" xmlns="http://www.w3.org/2000/svg">
<g opacity="0.5">
<rect y="1.52588e-05" width="1249.19" height="203" rx="8" fill="#68C3D4" fill-opacity="0.29"/>
<rect x="86.9001" y="203" width="19.1109" height="81.4689" transform="rotate(-90 86.9001 203)" fill="#68C3D4" fill-opacity="0.29"/>
<rect x="86.9001" y="183.889" width="19.1109" height="81.4689" transform="rotate(-90 86.9001 183.889)" fill="white"/>
<rect x="168.369" y="183.889" width="19.1109" height="81.4689" transform="rotate(-90 168.369 183.889)" fill="white" fill-opacity="0.9"/>
<rect x="86.9001" y="164.778" width="19.1109" height="81.4689" transform="rotate(-90 86.9001 164.778)" fill="white" fill-opacity="0.9"/>
<rect x="86.9001" y="145.667" width="19.1109" height="81.4689" transform="rotate(-90 86.9001 145.667)" fill="white"/>
<rect x="5.43115" y="145.667" width="19.1109" height="81.4689" transform="rotate(-90 5.43115 145.667)" fill="white" fill-opacity="0.9"/>
<rect x="245.249" y="203" width="19.1109" height="81.4689" transform="rotate(-90 245.249 203)" fill="white" fill-opacity="0.9"/>
<rect x="1168.56" width="19.1109" height="81.4689" transform="rotate(90 1168.56 0)" fill="#68C3D4" fill-opacity="0.29"/>
<rect x="1168.56" y="19.1109" width="19.1109" height="81.4689" transform="rotate(90 1168.56 19.1109)" fill="white"/>
<rect x="1087.09" y="19.1109" width="19.1109" height="81.4689" transform="rotate(90 1087.09 19.1109)" fill="white" fill-opacity="0.9"/>
<rect x="1168.56" y="38.2218" width="19.1109" height="81.4689" transform="rotate(90 1168.56 38.2218)" fill="white" fill-opacity="0.9"/>
<rect x="1168.56" y="57.3326" width="19.1109" height="81.4689" transform="rotate(90 1168.56 57.3326)" fill="white"/>
<rect x="1250.03" y="57.3326" width="19.1109" height="81.4689" transform="rotate(90 1250.03 57.3326)" fill="white" fill-opacity="0.9"/>
<rect x="1010.21" y="-7.62939e-06" width="19.1109" height="81.469" transform="rotate(90 1010.21 -7.62939e-06)" fill="white" fill-opacity="0.9"/>
<path d="M413.512 181.28C414.86 179.226 416.685 177.723 418.979 177.161C420.979 176.671 423.036 176.754 425.069 176.771L450.78 176.987C452.982 177.006 455.093 179.081 454.991 181.569C454.89 184.035 453.14 186.17 450.78 186.15C443.249 186.087 435.717 186.024 428.186 185.961C426.41 185.946 424.634 185.911 422.858 185.917C422.459 185.919 422.062 185.942 421.664 185.946C421.567 185.948 421.498 185.947 421.448 185.944C421.436 185.949 421.426 185.952 421.409 185.957C421.202 186.019 420.988 186.062 420.779 186.121C420.853 186.123 420.644 186.265 420.539 186.313C420.525 186.344 420.494 186.399 420.443 186.483C420.371 186.63 420.159 187.073 420.15 187.059C419.832 187.935 419.569 188.834 419.364 189.749C418.875 191.767 418.767 192.188 418.697 194.082C418.608 196.473 416.824 198.777 414.486 198.663C412.281 198.556 410.18 196.647 410.275 194.082C410.436 189.759 411.133 184.904 413.512 181.28Z" fill="#004D61"/>
<path d="M449.269 191.618C449.752 188.434 450.225 185.248 450.718 182.066C451.217 178.838 452.237 175.881 454.546 173.763C455.163 173.197 455.803 172.668 456.445 172.141C456.671 171.956 456.897 171.77 457.12 171.581C457.133 171.57 457.142 171.563 457.154 171.553C457.178 171.53 457.207 171.503 457.247 171.466C458.209 170.58 459.139 169.654 460.025 168.671C460.812 167.797 461.564 166.886 462.282 165.937C462.461 165.701 462.638 165.462 462.813 165.22C462.843 165.179 463.005 164.951 463.112 164.803C463.211 164.654 463.392 164.385 463.423 164.339C463.627 164.024 463.827 163.707 464.024 163.387C465.366 161.201 466.527 158.89 467.495 156.482C467.591 156.243 467.685 156.003 467.776 155.761C467.801 155.687 467.832 155.593 467.875 155.467C468.07 154.883 468.264 154.3 468.443 153.709C468.822 152.455 469.147 151.182 469.42 149.891C469.555 149.253 469.676 148.612 469.784 147.968C469.84 147.637 469.892 147.305 469.94 146.972C469.948 146.917 469.996 146.558 470.023 146.355C470.044 146.151 470.082 145.79 470.087 145.735C470.118 145.399 470.146 145.064 470.17 144.728C470.223 143.972 470.26 143.215 470.279 142.456C470.311 141.108 470.289 139.76 470.212 138.412C470.169 137.655 470.106 136.9 470.03 136.146C470.025 136.1 470.021 136.063 470.018 136.03C470.014 135.996 470.008 135.958 470.002 135.91C469.945 135.493 469.885 135.077 469.819 134.663C469.566 133.088 469.238 131.528 468.835 129.991C468.644 129.264 468.436 128.543 468.213 127.828C468.113 127.51 468.01 127.194 467.904 126.879C467.911 126.899 467.593 126.015 467.589 125.986C466.327 122.742 464.263 119.784 464.26 116.099C464.258 113.604 466.198 111.214 468.471 111.329C469.604 111.376 470.676 111.899 471.462 112.789C472.247 113.678 472.685 114.865 472.682 116.099C472.682 116.155 472.682 116.203 472.682 116.249C472.703 116.327 472.721 116.392 472.737 116.449C472.983 117.031 473.285 117.584 473.555 118.151C474.294 119.704 474.926 121.308 475.525 122.936C476.507 125.586 477.259 128.33 477.77 131.133C478.882 137.274 478.968 143.583 478.025 149.757C476.392 160.585 471.008 170.95 463.523 177.917C462.873 178.521 462.208 179.106 461.536 179.678C461.258 179.915 460.978 180.147 460.696 180.378C460.563 180.488 460.011 180.961 460.254 180.731C459.732 181.216 459.513 181.46 459.379 181.817C459.359 181.899 459.333 182.011 459.297 182.163C459.203 182.566 459.113 182.967 459.038 183.375C458.387 186.941 457.934 190.566 457.39 194.154C457.016 196.62 454.226 198.225 452.21 197.486C449.863 196.626 448.868 194.26 449.269 191.618Z" fill="#004D61"/>
<path d="M413.086 200.866C414.855 200.871 416.553 200.113 417.808 198.757C419.063 197.402 419.773 195.56 419.782 193.636V188.41C424.811 189.022 442.032 188.88 446.968 188.017V193.427C446.981 195.349 447.693 197.188 448.947 198.543C450.201 199.897 451.896 200.657 453.663 200.657C455.431 200.657 457.126 199.897 458.38 198.543C459.634 197.188 460.346 195.349 460.359 193.427V182.806C467.045 178.764 472.618 172.855 476.505 165.688C480.391 158.521 482.449 150.355 482.466 142.033C482.466 127.764 476.523 114.454 466.16 105.514C459.422 99.6819 451.235 96.1745 442.652 95.4422C441.487 95.3428 440.314 95.2925 439.167 95.2925C435.127 95.2925 416.897 95.9716 412.324 97.4033L401.894 86.1436C401.741 85.9758 401.545 85.8615 401.332 85.8153C401.119 85.769 400.897 85.7929 400.697 85.8839C400.495 85.9715 400.321 86.1235 400.2 86.3201C400.079 86.5167 400.015 86.7486 400.017 86.9854V88.7757L397.986 86.5874C397.833 86.4194 397.637 86.305 397.424 86.2586C397.211 86.2123 396.99 86.2362 396.789 86.3273C396.587 86.4148 396.413 86.5669 396.292 86.7635C396.17 86.9602 396.106 87.1923 396.108 87.4292V107.435C390.875 112.568 386.886 119.027 384.496 126.238C382.105 133.45 381.387 141.191 382.404 148.777C383.42 156.363 386.142 163.559 390.326 169.727C394.51 175.895 400.028 180.845 406.391 184.138V193.636C406.4 195.56 407.109 197.402 408.364 198.757C409.62 200.113 411.318 200.871 413.086 200.866ZM419.255 187.76V193.636C419.242 195.407 418.586 197.1 417.431 198.347C416.275 199.594 414.714 200.293 413.086 200.293C411.459 200.293 409.897 199.594 408.742 198.347C407.586 197.1 406.931 195.407 406.917 193.636V183.776L406.767 183.699C399.627 180.012 393.567 174.246 389.257 167.038C383.766 157.841 381.482 146.809 382.82 135.939C384.157 125.068 389.026 115.078 396.547 107.776L396.635 107.69V87.4292C396.633 87.3061 396.666 87.1853 396.729 87.0832C396.792 86.981 396.882 86.9023 396.988 86.8578C397.093 86.809 397.209 86.7958 397.32 86.82C397.432 86.8442 397.535 86.9046 397.615 86.9933L400.543 90.149V86.9854C400.541 86.8623 400.574 86.7415 400.637 86.6394C400.7 86.5372 400.791 86.4585 400.896 86.414C401.001 86.3653 401.117 86.3523 401.229 86.3766C401.341 86.401 401.444 86.4616 401.524 86.5505L412.176 98.0512L412.328 97.9996C416.58 96.5517 435.096 95.8652 439.168 95.8652C440.301 95.8652 441.459 95.9149 442.61 96.0132C451.09 96.7365 459.177 100.201 465.833 105.963C476.069 114.793 481.94 127.94 481.94 142.033C481.922 150.281 479.875 158.373 476.012 165.47C472.148 172.566 466.608 178.407 459.968 182.387L459.832 182.468V193.427C459.819 195.197 459.163 196.89 458.008 198.137C456.852 199.384 455.291 200.083 453.663 200.083C452.036 200.083 450.475 199.384 449.319 198.137C448.164 196.89 447.508 195.197 447.494 193.427V187.332L447.183 187.395C442.747 188.304 424.067 188.447 419.553 187.802L419.255 187.76Z" fill="#3F3D56"/>
<path d="M448.766 64.1091L477.91 73.6388C478.837 73.9431 479.615 74.6353 480.074 75.5634C480.532 76.4915 480.633 77.5795 480.354 78.5885C480.075 79.5974 479.44 80.4447 478.587 80.9443C477.735 81.4439 476.735 81.5548 475.807 81.2528L450.303 72.9114L449.768 72.7367C449.66 69.7411 448.913 66.8139 447.587 64.1864C447.753 64.1049 447.931 64.0545 448.113 64.0375C448.333 64.0143 448.555 64.0387 448.766 64.1091Z" fill="#E6E6E6"/>
<path d="M476.312 83.2845C476.699 83.2834 477.075 83.1502 477.389 82.9035C477.702 82.6568 477.937 82.3091 478.059 81.9096L479.881 75.9261C479.957 75.6762 479.987 75.4125 479.97 75.15C479.952 74.8874 479.887 74.6312 479.779 74.396C479.67 74.1607 479.52 73.9511 479.337 73.779C479.154 73.6068 478.941 73.4757 478.712 73.3929L454.991 64.8396C454.761 64.7568 454.519 64.724 454.278 64.7431C454.036 64.7622 453.801 64.8328 453.585 64.9509C453.368 65.069 453.176 65.2323 453.017 65.4315C452.859 65.6306 452.739 65.8617 452.663 66.1116L450.84 72.0951C450.688 72.5872 450.719 73.1243 450.925 73.5924C451.131 74.0606 451.496 74.4232 451.944 74.6033C451.966 74.6122 451.988 74.6207 452.01 74.6286L475.73 83.1816C475.918 83.2496 476.114 83.2843 476.312 83.2845Z" fill="#637081"/>
<path d="M431.888 53.4827C436.675 53.4847 441.274 55.5136 444.711 59.1398C448.148 62.766 450.154 67.705 450.303 72.9114C450.308 73.1147 450.311 73.3209 450.311 73.5271C450.311 77.4915 449.23 81.3669 447.206 84.6631C445.181 87.9594 442.304 90.5286 438.938 92.0457C435.572 93.5628 431.867 93.9597 428.294 93.1863C424.72 92.4129 421.438 90.5039 418.861 87.7006C416.285 84.8973 414.53 81.3258 413.819 77.4376C413.108 73.5493 413.473 69.5191 414.868 65.8564C416.262 62.1938 418.623 59.0633 421.653 56.8608C424.682 54.6583 428.244 53.4827 431.888 53.4827ZM431.888 92.9988C436.633 92.9934 441.182 90.9402 444.537 87.2897C447.892 83.6392 449.779 78.6896 449.784 73.5271C449.784 73.2608 449.779 72.9973 449.768 72.7368C449.626 68.9226 448.456 65.2381 446.404 62.1414C444.353 59.0448 441.51 56.6727 438.229 55.32C434.948 53.9673 431.374 53.6938 427.951 54.5333C424.529 55.3729 421.408 57.2886 418.978 60.0422C416.549 62.7958 414.916 66.2658 414.284 70.0208C413.652 73.7757 414.049 77.6499 415.424 81.1617C416.8 84.6734 419.094 87.6677 422.021 89.7723C424.948 91.8769 428.379 92.9989 431.888 92.9988Z" fill="#3F3D56"/>
<path d="M416.36 73.5271C416.36 78.0078 417.996 82.305 420.908 85.4733C423.82 88.6417 427.77 90.4216 431.888 90.4216C436.006 90.4216 439.956 88.6417 442.868 85.4733C445.78 82.305 447.416 78.0078 447.416 73.5271C447.416 72.9916 447.392 72.4647 447.347 71.9436C446.973 67.6192 445.082 63.6178 442.068 60.7702C439.054 57.9225 435.147 56.4474 431.159 56.6512C427.172 56.855 423.409 58.722 420.654 61.8645C417.898 65.007 416.36 69.1836 416.36 73.5271Z" fill="#E6E6E6"/>
<path d="M427.264 74.6496C427.64 74.1111 428.135 73.6847 428.703 73.4097C429.404 73.0884 430.128 72.8298 430.867 72.6365V68.0378C429.73 68.2242 428.665 68.7529 427.79 69.564L426.932 67.5739C427.426 67.0956 427.992 66.7147 428.606 66.4486C429.287 66.1488 430.001 65.9494 430.73 65.8558V63.5249H432.717V65.8787C433.484 65.9725 434.224 66.2429 434.888 66.6719C435.488 67.0581 435.993 67.5965 436.359 68.2411C436.709 68.8702 436.891 69.5932 436.883 70.3286C436.917 71.1254 436.705 71.9118 436.28 72.5621C435.89 73.1251 435.373 73.5705 434.78 73.8564C434.069 74.1871 433.333 74.4524 432.58 74.6496V79.0565C433.921 78.9464 435.199 78.3917 436.241 77.4672L437.099 79.4602C436.516 79.9844 435.853 80.3934 435.141 80.6686C434.36 80.9726 433.544 81.1576 432.717 81.2184V83.5292H430.73V81.1754C429.626 81.0442 428.591 80.5279 427.78 79.7036C427.422 79.3307 427.14 78.881 426.951 78.3832C426.761 77.8854 426.669 77.3502 426.68 76.8115C426.647 76.04 426.852 75.2788 427.264 74.6496ZM432.58 72.1497C433.064 71.99 433.514 71.7272 433.904 71.3766C434.058 71.2271 434.18 71.0422 434.261 70.8353C434.342 70.6283 434.38 70.4044 434.372 70.1797C434.387 69.6697 434.214 69.1743 433.893 68.8023C433.537 68.4121 433.078 68.1528 432.58 68.0607V72.1497ZM429.619 78.2432C429.955 78.6179 430.392 78.8657 430.867 78.9505V75.1593C430.413 75.2917 429.989 75.5225 429.619 75.8379C429.479 75.9681 429.368 76.1309 429.294 76.3144C429.219 76.4978 429.184 76.6971 429.19 76.8974C429.172 77.3888 429.325 77.8696 429.619 78.2432Z" fill="#004D61"/>
<path d="M475.466 107.535C475.873 107.534 476.268 107.388 476.59 107.117C476.913 106.847 477.144 106.469 477.249 106.041L478.241 101.955C478.365 101.442 478.297 100.895 478.052 100.436C477.806 99.9774 477.403 99.643 476.932 99.5066L445.629 90.5068C445.156 90.3727 444.654 90.4476 444.233 90.7151C443.811 90.9827 443.504 91.421 443.378 91.9344L442.538 95.3963L442.695 95.4095C450.723 96.0887 458.405 99.2557 464.831 104.536L464.876 104.56L474.998 107.469C475.151 107.513 475.308 107.535 475.466 107.535Z" fill="#637081"/>
<path d="M480.65 127.719C484.322 127.128 487.834 125.684 490.946 123.483C492.488 122.393 493.916 121.123 495.203 119.695C496.474 118.285 497.689 116.682 498.319 114.804C498.924 113.067 498.893 111.143 498.231 109.43C497.579 107.727 496.333 106.376 494.766 105.671C493.189 104.987 491.285 104.914 489.751 105.663C489.019 106.012 488.387 106.566 487.918 107.269C487.7 107.592 487.538 107.957 487.441 108.345C487.351 108.696 487.343 109.066 487.417 109.421C487.507 109.776 487.666 110.106 487.883 110.388C488.099 110.671 488.369 110.9 488.674 111.06C489.344 111.434 490.071 111.675 490.819 111.772C491.572 111.883 492.653 111.985 493.258 111.328C493.383 111.198 493.481 111.04 493.546 110.866C493.592 110.733 493.607 110.59 493.591 110.449C493.6 110.511 493.555 110.314 493.557 110.322C493.567 110.351 493.608 110.422 493.55 110.313C493.531 110.277 493.511 110.242 493.488 110.209C493.508 110.237 493.552 110.284 493.474 110.203C493.409 110.126 493.326 110.07 493.233 110.041C493.197 110.03 493.16 110.021 493.123 110.01C493.03 109.982 493.216 110.011 493.121 110.008C493.084 110.007 493.047 110.008 493.01 110.006C492.917 110.001 493.102 109.978 493.013 110.003C492.978 110.012 492.944 110.022 492.91 110.033C492.836 110.059 492.962 109.974 492.912 110.037C492.853 110.112 492.974 109.965 492.907 110.037C492.874 110.073 492.842 110.11 492.813 110.15C492.697 110.275 492.54 110.345 492.377 110.345C492.213 110.345 492.057 110.275 491.94 110.15C491.828 110.022 491.766 109.852 491.766 109.675C491.766 109.499 491.828 109.329 491.94 109.201C492.549 108.38 493.75 108.583 494.366 109.276C495.151 110.161 494.84 111.562 494.076 112.334C493.212 113.208 491.988 113.268 490.877 113.122C489.937 113.024 489.022 112.742 488.174 112.291C487.332 111.841 486.673 111.066 486.325 110.118C486.168 109.612 486.112 109.075 486.16 108.544C486.208 108.012 486.359 107.498 486.603 107.034C487.585 105.027 489.617 103.997 491.626 103.819C492.66 103.731 493.7 103.867 494.686 104.219C495.672 104.571 496.583 105.132 497.368 105.87C498.881 107.352 499.813 109.41 499.971 111.619C500.146 113.908 499.33 116.132 498.139 117.98C496.893 119.857 495.406 121.53 493.723 122.949C490.434 125.806 486.575 127.786 482.456 128.73C481.966 128.84 481.473 128.935 480.978 129.013C480.821 129.055 480.654 129.029 480.513 128.942C480.372 128.855 480.267 128.713 480.219 128.544C480.177 128.373 480.198 128.19 480.279 128.035C480.36 127.881 480.493 127.767 480.65 127.719L480.65 127.719Z" fill="#3F3D56"/>
<path d="M421.859 98.5465C427.239 98.4639 432.602 98.6125 437.948 98.9922C439.776 99.122 441.357 99.8247 441.357 101.006C441.357 101.993 439.788 103.15 437.948 103.019C432.605 102.64 427.242 102.491 421.859 102.574C417.471 102.641 417.474 98.6139 421.859 98.5465Z" fill="#CCCCCC"/>
<path d="M429.811 102.374C430.392 102.374 444.051 102.351 444.051 100.298C444.051 98.2455 430.392 98.2218 429.811 98.2218C429.229 98.2218 415.571 98.2455 415.571 100.298C415.571 102.351 429.229 102.374 429.811 102.374ZM443.516 100.298C443.143 100.92 438.122 101.802 429.811 101.802C421.5 101.802 416.479 100.92 416.105 100.298C416.479 99.6758 421.5 98.7945 429.811 98.7945C438.122 98.7945 443.143 99.6758 443.516 100.298V100.298Z" fill="#3F3D56"/>
<path d="M471.008 116.688C471.446 116.687 471.87 116.515 472.203 116.205C472.536 115.894 472.757 115.465 472.825 114.994L473.426 110.818C473.501 110.293 473.382 109.757 473.094 109.328C472.806 108.898 472.374 108.611 471.891 108.528L439.907 103.075C439.424 102.993 438.931 103.123 438.537 103.436C438.142 103.749 437.878 104.22 437.801 104.745L437.2 108.921C437.125 109.446 437.244 109.982 437.532 110.411C437.82 110.841 438.252 111.128 438.735 111.211L470.72 116.664C470.815 116.68 470.911 116.688 471.008 116.688Z" fill="#637081"/>
<path d="M484.245 67.7563C476.832 67.7563 470.823 61.218 470.823 53.1526C470.823 45.0872 476.832 38.5488 484.245 38.5488C491.658 38.5488 497.667 45.0872 497.667 53.1526C497.667 61.218 491.658 67.7563 484.245 67.7563Z" fill="#E6E6E6"/>
<path d="M476.645 56.9312C476.216 56.768 475.824 56.5067 475.496 56.1649C475.279 55.9212 475.113 55.6288 475.01 55.3082C474.908 54.9875 474.871 54.6463 474.903 54.3085C474.921 54.0678 474.99 53.8349 475.105 53.628C475.219 53.4212 475.376 53.246 475.564 53.1161C476.049 52.7911 476.691 52.8034 477.339 53.1302L477.414 47.4297L477.94 47.4378L477.853 54.1395L477.452 53.8535C476.987 53.5226 476.32 53.2826 475.839 53.604C475.721 53.6891 475.622 53.8028 475.55 53.9364C475.478 54.07 475.435 54.2198 475.425 54.3741C475.403 54.6258 475.431 54.8796 475.507 55.1185C475.584 55.3573 475.706 55.5755 475.867 55.7582C476.437 56.3742 477.282 56.5806 478.246 56.7694L478.152 57.3329C477.64 57.2483 477.136 57.1138 476.645 56.9312Z" fill="#637081"/>
<path d="M471.994 47.0295L474.797 47.4914L474.718 48.0576L471.915 47.5957L471.994 47.0295Z" fill="#637081"/>
<path d="M480.842 48.487L483.645 48.9489L483.566 49.5151L480.763 49.0532L480.842 48.487Z" fill="#637081"/>
<path d="M475.375 116.433C475.857 116.432 476.328 116.271 476.725 115.971C477.121 115.672 477.425 115.248 477.594 114.756L486.849 87.7914C487.98 84.4843 487.859 80.824 486.513 77.6137C485.167 74.4034 482.705 71.9051 479.668 70.6671L472.143 67.61C471.852 67.491 471.543 67.4357 471.232 67.4475C470.921 67.4592 470.616 67.5377 470.333 67.6784C470.051 67.8154 469.797 68.0123 469.586 68.2574C469.374 68.5026 469.21 68.7911 469.103 69.106L451.96 104.322C451.849 104.64 451.796 104.978 451.805 105.318C451.815 105.658 451.886 105.992 452.014 106.302C452.143 106.611 452.327 106.89 452.555 107.123C452.783 107.355 453.051 107.536 453.343 107.655L474.547 116.269C474.812 116.377 475.092 116.433 475.375 116.433Z" fill="#637081"/>
<path d="M474.426 68.5374L457.417 93.2853L468.926 68.7972C469.022 68.5115 469.167 68.2489 469.356 68.0245C469.544 67.8001 469.771 67.6183 470.024 67.4895C470.277 67.3606 470.551 67.2872 470.83 67.2735C471.109 67.2598 471.388 67.306 471.65 67.4095L474.426 68.5374Z" fill="#E6E6E6"/>
<path d="M447.494 87.3319L477.864 85.2035C478.343 85.1699 478.811 85.0341 479.241 84.8038C479.672 84.5735 480.056 84.2532 480.373 83.8612C480.69 83.4692 480.932 83.0131 481.087 82.5191C481.242 82.0251 481.306 81.5027 481.275 80.9819C481.244 80.461 481.119 79.9519 480.907 79.4835C480.696 79.0152 480.401 78.5968 480.041 78.2522C479.681 77.9076 479.262 77.6437 478.807 77.4753C478.353 77.307 477.873 77.2376 477.395 77.2712L447.025 79.3995C446.801 79.4152 446.581 79.4788 446.38 79.5866C446.178 79.6945 445.998 79.8445 445.85 80.028C445.701 80.2116 445.588 80.4252 445.515 80.6566C445.443 80.8879 445.413 81.1326 445.428 81.3765L445.677 85.5941C445.706 86.0868 445.914 86.5466 446.255 86.8725C446.596 87.1984 447.042 87.3636 447.494 87.3319Z" fill="#E6E6E6"/>
<path d="M455.61 88.6964C455.65 88.6964 455.69 88.695 455.73 88.6922L480.668 86.9445C480.91 86.9276 481.146 86.8591 481.363 86.743C481.58 86.6269 481.774 86.4653 481.934 86.2676C482.094 86.0699 482.216 85.8399 482.294 85.5908C482.372 85.3416 482.404 85.0782 482.389 84.8155L481.962 77.6115C481.947 77.3488 481.884 77.092 481.777 76.8558C481.67 76.6196 481.522 76.4086 481.34 76.2348C481.158 76.061 480.947 75.9279 480.718 75.843C480.489 75.7581 480.247 75.7232 480.005 75.7401L455.067 77.4877C454.58 77.5225 454.125 77.7661 453.802 78.1653C453.48 78.5644 453.316 79.0864 453.347 79.6167L453.773 86.8209C453.797 87.2069 453.922 87.5773 454.135 87.8877C454.347 88.1981 454.637 88.4353 454.97 88.5707C455.175 88.654 455.391 88.6966 455.61 88.6964Z" fill="#637081"/>
<path d="M484.398 43.4413C482.633 41.789 480.208 43.2671 478.183 43.0084C476.246 42.7608 474.716 40.8701 474.325 38.8614C473.869 36.5179 474.987 34.1701 476.635 32.709C478.44 31.1087 480.833 30.6493 483.101 30.9453C485.701 31.2847 488.079 32.6031 490.212 34.1978C492.271 35.6895 494.165 37.4353 495.855 39.4005C497.368 41.2193 498.651 43.3873 499.06 45.8347C499.432 48.0589 499.148 50.5237 497.94 52.4079C497.299 53.3736 496.44 54.1434 495.446 54.6429C494.41 55.1966 493.305 55.5923 492.301 56.2183C490.783 57.1648 489.308 59.1273 489.783 61.1695C489.885 61.6157 490.086 62.0277 490.369 62.3693C490.709 62.7796 491.321 62.2375 490.981 61.8261C490.382 61.1036 490.406 60.1401 490.725 59.2775C491.104 58.3056 491.775 57.5025 492.629 56.9999C493.679 56.3461 494.84 55.9426 495.917 55.3472C496.948 54.8032 497.843 53.9963 498.525 52.9952C499.814 51.046 500.2 48.5093 499.908 46.1626C499.591 43.6232 498.392 41.3155 496.889 39.3818C495.253 37.2773 493.243 35.4959 491.19 33.8955C488.987 32.1783 486.554 30.7266 483.861 30.2015C481.526 29.7463 478.996 30.0265 476.954 31.4107C475.049 32.7027 473.588 34.9253 473.442 37.4088C473.39 38.5387 473.616 39.6634 474.096 40.6671C474.576 41.6707 475.293 42.5171 476.173 43.1191C477.077 43.7073 478.127 43.9721 479.176 43.876C480.298 43.7979 481.42 43.4242 482.549 43.528C483.06 43.5617 483.547 43.7757 483.935 44.1375C484.321 44.4985 484.781 43.7994 484.398 43.4413V43.4413Z" fill="#637081"/>
<path d="M382.667 133.797L378.383 133.373C376.62 133.199 375.09 134.584 375.09 136.356V145.137C375.09 147.026 376.817 148.444 378.67 148.077L382.667 147.287" stroke="#3F3D56" stroke-width="0.562076"/>
</g>
</svg>
