<svg width="169" height="37" viewBox="0 0 169 37" fill="none" xmlns="http://www.w3.org/2000/svg">
<path d="M38.3289 30.3006L41.483 7.75704C43.2402 7.5821 45.6899 7.49463 48.8322 7.49463C51.5866 7.49463 53.4941 7.93198 54.5547 8.80271C55.6153 9.67344 55.9874 11.2439 55.6589 13.5062C55.4214 15.1403 54.9544 16.361 54.2619 17.1641C53.5693 17.9712 52.5364 18.4404 51.171 18.5676L51.1394 18.7306C54.1313 18.9692 55.3462 20.9969 54.7803 24.8098C54.432 27.0761 53.6959 28.5989 52.5681 29.3821C51.4402 30.1654 49.5762 30.559 46.9761 30.559C43.1848 30.563 40.3037 30.4755 38.3289 30.3006ZM41.8748 27.756L46.4933 27.7878C48.2702 27.7878 49.5168 27.5333 50.2331 27.0204C50.9494 26.5075 51.4164 25.5016 51.6301 23.9987C51.8478 22.3885 51.6776 21.303 51.1275 20.7464C50.5735 20.1898 49.4218 19.9035 47.6647 19.8796H42.9829L41.8748 27.756ZM43.3391 17.3629H47.8269C49.3862 17.3629 50.5101 17.1005 51.1948 16.5796C51.8794 16.0588 52.3266 15.0767 52.5443 13.6374C52.7382 12.2657 52.5641 11.3632 52.0219 10.9259C51.4797 10.4925 50.3637 10.2738 48.6739 10.2738H44.3166L43.3391 17.3629Z" fill="#004D61"/>
<path d="M69.8111 14.3571H73.0958C71.9244 19.5417 70.3968 23.9311 68.509 27.5254C66.8192 30.7499 65.1412 33.036 63.483 34.3878C61.8248 35.7396 59.846 36.6104 57.5467 37L56.961 34.7457C58.3501 34.4196 59.5611 33.9306 60.6019 33.2746C61.6427 32.6225 62.64 31.6285 63.5938 30.3006H62.1295C61.6309 30.3006 61.2074 30.1654 60.8631 29.8911C60.5149 29.6207 60.2972 29.243 60.2141 28.7619L57.1589 14.3531H60.4792L62.8854 27.259C62.9487 27.6287 63.1664 27.8156 63.5344 27.8156H65.1293C65.2164 27.6645 65.3351 27.4379 65.4855 27.1477C65.6359 26.8534 65.7348 26.6626 65.7784 26.5751C67.6859 22.5912 69.0314 18.5199 69.8111 14.3571Z" fill="#004D61"/>
<path d="M79.5662 16.8062L78.2958 25.76C78.189 26.5234 78.2563 27.0403 78.5056 27.3106C78.7549 27.585 79.2575 27.7201 80.0174 27.7201H82.3919L82.5225 30.1693C81.5687 30.4516 80.334 30.5947 78.8143 30.5947C77.4054 30.5947 76.3923 30.2011 75.7749 29.4179C75.1575 28.6346 74.9438 27.5134 75.1417 26.0542L76.4437 16.8062H73.5508L73.8436 14.5201L76.8038 14.3571L77.4885 9.68533H80.5793L79.9303 14.3571H84.8099L84.4854 16.8062H79.5662Z" fill="#004D61"/>
<path d="M97.8779 27.6566L98.0718 29.7797C96.5323 30.3881 94.3517 30.6942 91.534 30.6942C88.8231 30.6942 86.9472 29.9825 85.9064 28.5551C84.8655 27.1278 84.541 24.9132 84.9289 21.9074C85.3404 18.838 86.1794 16.7387 87.4498 15.6175C88.7162 14.4963 90.8058 13.9357 93.7106 13.9357C96.1841 13.9357 97.862 14.373 98.7525 15.2437C99.6429 16.1145 99.9674 17.3987 99.73 19.1004C99.4688 20.647 98.8633 21.7643 97.9095 22.4481C96.9558 23.136 95.4915 23.5534 93.5206 23.7045L88.0236 24.1936C87.9999 25.6965 88.3165 26.7143 88.9655 27.2471C89.6146 27.7798 90.6356 28.0462 92.0207 28.0462C93.4969 28.0462 95.448 27.919 97.8779 27.6566ZM88.2176 21.8398L93.5206 21.3508C94.5179 21.2871 95.2461 21.0724 95.7012 20.7146C96.1563 20.3568 96.4492 19.7286 96.5798 18.834C96.7104 17.8122 96.5402 17.18 96.0772 16.9375C95.6102 16.6989 94.6644 16.5796 93.2317 16.5796C91.5854 16.5796 90.4179 16.9216 89.7372 17.6094C89.0486 18.2933 88.5421 19.7047 88.2176 21.8398Z" fill="#004D61"/>
<path d="M107.016 7.43102L106.137 14.0311C105.943 15.4703 105.658 16.687 105.29 17.6889C106.331 16.6432 107.475 15.7606 108.721 15.0409C109.968 14.3213 111.123 13.9635 112.184 13.9635C113.443 13.9635 114.408 14.198 115.077 14.6672C115.75 15.1364 116.225 16.0071 116.51 17.2794C116.791 18.5517 116.747 20.3011 116.379 22.5236C116.142 24.3088 115.805 25.764 115.37 26.8852C114.935 28.0064 114.373 28.8414 113.68 29.3861C112.987 29.9308 112.283 30.2886 111.567 30.4636C110.85 30.6385 109.928 30.726 108.804 30.726C106.161 30.726 103.493 30.3324 100.802 29.5491L103.893 7.43102H107.016ZM105.227 20.1739L104.154 28.0144C105.714 28.078 106.873 28.1138 107.633 28.1138C109.691 28.1138 111.048 27.7838 111.697 27.1158C112.346 26.4519 112.845 24.8456 113.193 22.297C113.498 19.9234 113.53 18.3966 113.292 17.7207C113.055 17.0448 112.437 16.7069 111.44 16.7069C109.901 16.7108 107.831 17.8639 105.227 20.1739Z" fill="#004D61"/>
<path d="M132.059 30.3006H129.585L129.716 27.3584C127.808 29.581 125.533 30.6902 122.885 30.6902C120.954 30.6902 119.656 30.0581 118.983 28.7937C118.31 27.5294 118.192 25.3068 118.627 22.1301C118.864 20.3647 119.201 18.9215 119.636 17.8003C120.071 16.6791 120.645 15.8441 121.362 15.2994C122.078 14.7547 122.814 14.3889 123.574 14.206C124.334 14.0231 125.307 13.9277 126.502 13.9277C129.083 13.9277 131.675 14.21 134.275 14.7786L132.059 30.3006ZM129.684 24.5514L130.824 16.6433C128.829 16.5995 127.713 16.5797 127.476 16.5797C126.348 16.5797 125.493 16.6353 124.908 16.7427C124.322 16.85 123.807 17.1283 123.364 17.5776C122.921 18.0229 122.592 18.5955 122.387 19.2912C122.181 19.987 121.979 21.0128 121.785 22.3607C121.48 24.7343 121.445 26.2611 121.67 26.933C121.9 27.6089 122.521 27.9468 123.542 27.9468C124.539 27.9468 125.513 27.6685 126.471 27.1119C127.417 26.5632 128.493 25.7084 129.684 24.5514Z" fill="#004D61"/>
<path d="M140.255 14.3571L140.093 17.7884C142.954 15.2199 145.459 13.9317 147.604 13.9317C148.95 13.9317 149.967 14.3174 150.659 15.0927C151.352 15.868 151.589 16.9733 151.375 18.4086L149.686 30.3006H146.563L148.091 19.1919C148.221 18.1899 148.182 17.51 147.976 17.1482C147.77 16.7904 147.319 16.6075 146.626 16.6075C145.736 16.6075 144.81 16.8818 143.844 17.4226C142.879 17.9673 141.616 18.8619 140.057 20.1023L138.66 30.2966H135.506L137.75 14.3532H140.255V14.3571Z" fill="#004D61"/>
<path d="M165.231 14.3571H168.452C167.542 17.2118 165.785 19.5735 163.185 21.4462C163.509 21.9471 163.834 22.5793 164.162 23.3427L167.253 30.3006H163.87L160.814 22.9491C159.837 23.4739 158.582 24.0822 157.043 24.778L156.232 30.3006H153.109L156.295 7.43102H159.449L158.016 18.1461C157.822 19.4542 157.474 20.7583 156.976 22.0664C159.033 21.0844 160.818 19.9393 162.326 18.6193C163.826 17.3032 164.796 15.8838 165.231 14.3571Z" fill="#004D61"/>
<path d="M23.3178 7.55827H7.73699V23.2115H23.3178V7.55827Z" fill="#004D61"/>
<path d="M7.68564 0H0.106987V7.50655H7.68564V0Z" fill="#004D61"/>
<path d="M30.7343 0H23.2625V7.50655H30.7343V0Z" fill="#004D61"/>
<path d="M38.3288 30.3006L41.483 7.75704C43.2401 7.5821 45.6898 7.49463 48.8321 7.49463C51.5865 7.49463 53.4941 7.93198 54.5547 8.80271C55.6153 9.67344 55.9873 11.2439 55.6588 13.5062C55.4214 15.1403 54.9544 16.361 54.2618 17.1641C53.5693 17.9712 52.5363 18.4404 51.171 18.5676L51.1393 18.7306C54.1312 18.9692 55.3462 20.9969 54.7803 24.8098C54.432 27.0761 53.6959 28.5989 52.568 29.3821C51.4401 30.1654 49.5761 30.559 46.976 30.559C43.1847 30.563 40.3036 30.4755 38.3288 30.3006ZM41.8748 27.756L46.4932 27.7878C48.2701 27.7878 49.5168 27.5333 50.2331 27.0204C50.9494 26.5075 51.4164 25.5016 51.6301 23.9987C51.8477 22.3885 51.6776 21.303 51.1275 20.7464C50.5734 20.1898 49.4218 19.9035 47.6646 19.8796H42.9829L41.8748 27.756ZM43.3391 17.3629H47.8269C49.3862 17.3629 50.5101 17.1005 51.1947 16.5796C51.8794 16.0588 52.3266 15.0767 52.5443 13.6374C52.7382 12.2657 52.5641 11.3632 52.0219 10.9259C51.4797 10.4925 50.3637 10.2738 48.6738 10.2738H44.3166L43.3391 17.3629Z" fill="#004D61"/>
<path d="M69.811 14.3571H73.0958C71.9244 19.5417 70.3968 23.9311 68.509 27.5254C66.8192 30.7499 65.1412 33.036 63.483 34.3878C61.8248 35.7396 59.846 36.6104 57.5467 37L56.961 34.7457C58.3501 34.4196 59.5611 33.9306 60.6019 33.2746C61.6427 32.6225 62.64 31.6285 63.5938 30.3006H62.1295C61.6308 30.3006 61.2074 30.1654 60.8631 29.8911C60.5148 29.6207 60.2972 29.243 60.2141 28.7619L57.1588 14.3531H60.4792L62.8854 27.259C62.9487 27.6287 63.1664 27.8156 63.5344 27.8156H65.1293C65.2164 27.6645 65.3351 27.4379 65.4855 27.1477C65.6359 26.8534 65.7348 26.6626 65.7783 26.5751C67.6859 22.5912 69.0314 18.5199 69.811 14.3571Z" fill="#004D61"/>
<path d="M79.5662 16.8062L78.2958 25.76C78.1889 26.5234 78.2562 27.0403 78.5055 27.3106C78.7549 27.585 79.2575 27.7201 80.0173 27.7201H82.3918L82.5224 30.1693C81.5687 30.4516 80.3339 30.5947 78.8142 30.5947C77.4053 30.5947 76.3922 30.2011 75.7748 29.4179C75.1575 28.6346 74.9438 27.5134 75.1416 26.0542L76.4437 16.8062H73.5507L73.8436 14.5201L76.8038 14.3571L77.4885 9.68533H80.5793L79.9302 14.3571H84.8099L84.4854 16.8062H79.5662Z" fill="#004D61"/>
<path d="M97.8778 27.6566L98.0717 29.7797C96.5323 30.3881 94.3517 30.6942 91.5339 30.6942C88.823 30.6942 86.9471 29.9825 85.9063 28.5551C84.8655 27.1278 84.541 24.9132 84.9288 21.9074C85.3404 18.838 86.1794 16.7387 87.4498 15.6175C88.7162 14.4963 90.8057 13.9357 93.7106 13.9357C96.184 13.9357 97.862 14.373 98.7524 15.2437C99.6429 16.1145 99.9674 17.3987 99.7299 19.1004C99.4687 20.647 98.8632 21.7643 97.9095 22.4481C96.9557 23.136 95.4914 23.5534 93.5206 23.7045L88.0236 24.1936C87.9999 25.6965 88.3164 26.7143 88.9655 27.2471C89.6145 27.7798 90.6356 28.0462 92.0207 28.0462C93.4969 28.0462 95.4479 27.919 97.8778 27.6566ZM88.2175 21.8398L93.5206 21.3508C94.5179 21.2871 95.2461 21.0724 95.7012 20.7146C96.1563 20.3568 96.4492 19.7286 96.5798 18.834C96.7104 17.8122 96.5402 17.18 96.0772 16.9375C95.6102 16.6989 94.6643 16.5796 93.2317 16.5796C91.5854 16.5796 90.4179 16.9216 89.7372 17.6094C89.0486 18.2933 88.542 19.7047 88.2175 21.8398Z" fill="#004D61"/>
<path d="M107.016 7.43102L106.137 14.0311C105.943 15.4703 105.658 16.687 105.29 17.6889C106.331 16.6432 107.475 15.7606 108.721 15.0409C109.968 14.3213 111.123 13.9635 112.184 13.9635C113.443 13.9635 114.408 14.198 115.077 14.6672C115.75 15.1364 116.225 16.0071 116.51 17.2794C116.791 18.5517 116.747 20.3011 116.379 22.5236C116.142 24.3088 115.805 25.764 115.37 26.8852C114.935 28.0064 114.373 28.8414 113.68 29.3861C112.987 29.9308 112.283 30.2886 111.567 30.4636C110.85 30.6385 109.928 30.726 108.804 30.726C106.161 30.726 103.493 30.3324 100.802 29.5491L103.893 7.43102H107.016ZM105.227 20.1739L104.154 28.0144C105.713 28.078 106.873 28.1138 107.633 28.1138C109.691 28.1138 111.048 27.7838 111.697 27.1158C112.346 26.4519 112.845 24.8456 113.193 22.297C113.498 19.9234 113.53 18.3966 113.292 17.7207C113.055 17.0448 112.437 16.7069 111.44 16.7069C109.901 16.7108 107.831 17.8639 105.227 20.1739Z" fill="#004D61"/>
<path d="M132.059 30.3006H129.585L129.716 27.3584C127.808 29.581 125.533 30.6902 122.885 30.6902C120.954 30.6902 119.656 30.0581 118.983 28.7937C118.31 27.5294 118.192 25.3068 118.627 22.1301C118.864 20.3647 119.201 18.9215 119.636 17.8003C120.071 16.6791 120.645 15.8441 121.362 15.2994C122.078 14.7547 122.814 14.3889 123.574 14.206C124.334 14.0231 125.307 13.9277 126.502 13.9277C129.083 13.9277 131.675 14.21 134.275 14.7786L132.059 30.3006ZM129.684 24.5514L130.824 16.6433C128.829 16.5995 127.713 16.5797 127.476 16.5797C126.348 16.5797 125.493 16.6353 124.907 16.7427C124.322 16.85 123.807 17.1283 123.364 17.5776C122.921 18.0229 122.592 18.5955 122.387 19.2912C122.181 19.987 121.979 21.0128 121.785 22.3607C121.48 24.7343 121.445 26.2611 121.67 26.933C121.9 27.6089 122.521 27.9468 123.542 27.9468C124.539 27.9468 125.513 27.6685 126.471 27.1119C127.417 26.5632 128.493 25.7084 129.684 24.5514Z" fill="#004D61"/>
<path d="M140.255 14.3571L140.093 17.7884C142.954 15.2199 145.459 13.9317 147.604 13.9317C148.95 13.9317 149.967 14.3174 150.659 15.0927C151.352 15.868 151.589 16.9733 151.375 18.4086L149.686 30.3006H146.563L148.091 19.1919C148.221 18.1899 148.182 17.51 147.976 17.1482C147.77 16.7904 147.319 16.6075 146.626 16.6075C145.736 16.6075 144.81 16.8818 143.844 17.4226C142.879 17.9673 141.616 18.8619 140.057 20.1023L138.66 30.2966H135.506L137.75 14.3532H140.255V14.3571Z" fill="#004D61"/>
<path d="M165.231 14.3571H168.452C167.542 17.2118 165.785 19.5735 163.185 21.4462C163.509 21.9471 163.834 22.5793 164.162 23.3427L167.253 30.3006H163.869L160.814 22.9491C159.837 23.4739 158.582 24.0822 157.043 24.778L156.231 30.3006H153.109L156.295 7.43102H159.449L158.016 18.1461C157.822 19.4542 157.474 20.7583 156.975 22.0664C159.033 21.0844 160.818 19.9393 162.326 18.6193C163.826 17.3032 164.796 15.8838 165.231 14.3571Z" fill="#004D61"/>
<path d="M15.5808 23.1597H0V30.9884H15.5808V23.1597Z" fill="#004D61" fill-opacity="0.5"/>
<path d="M7.68564 0H0.106987V7.50655H7.68564V0Z" fill="#004D61"/>
<path d="M30.734 0H23.2622V7.50655H30.734V0Z" fill="#004D61"/>
</svg>
