<svg width="290" height="150" viewBox="0 0 290 150" fill="none" xmlns="http://www.w3.org/2000/svg">
<g opacity="0.5">
<rect width="289.805" height="150" rx="8" fill="#68C3D4" fill-opacity="0.29"/>
<rect x="43.2969" y="150" width="14.1213" height="42.037" transform="rotate(-90 43.2969 150)" fill="#68C3D4" fill-opacity="0.29"/>
<rect x="43.2969" y="135.879" width="14.1213" height="42.037" transform="rotate(-90 43.2969 135.879)" fill="white"/>
<rect x="85.3337" y="135.879" width="14.1213" height="42.037" transform="rotate(-90 85.3337 135.879)" fill="white" fill-opacity="0.9"/>
<rect x="43.2969" y="121.757" width="14.1213" height="42.037" transform="rotate(-90 43.2969 121.757)" fill="white" fill-opacity="0.9"/>
<rect x="43.2969" y="107.636" width="14.1213" height="42.037" transform="rotate(-90 43.2969 107.636)" fill="white"/>
<rect x="1.26001" y="107.636" width="14.1213" height="42.037" transform="rotate(-90 1.26001 107.636)" fill="white" fill-opacity="0.9"/>
<rect x="125.003" y="150" width="14.1213" height="42.037" transform="rotate(-90 125.003 150)" fill="white" fill-opacity="0.9"/>
<rect x="248.231" width="14.1213" height="41.7682" transform="rotate(90 248.231 0)" fill="#68C3D4" fill-opacity="0.29"/>
<rect x="248.231" y="14.1213" width="14.1213" height="41.7682" transform="rotate(90 248.231 14.1213)" fill="white"/>
<rect x="206.464" y="14.1213" width="14.1213" height="41.7682" transform="rotate(90 206.464 14.1213)" fill="white" fill-opacity="0.9"/>
<rect x="248.231" y="28.2427" width="14.1213" height="41.7682" transform="rotate(90 248.231 28.2427)" fill="white" fill-opacity="0.9"/>
<rect x="248.231" y="42.364" width="14.1213" height="41.7682" transform="rotate(90 248.231 42.364)" fill="white"/>
<rect x="290" y="42.364" width="14.1213" height="41.7682" transform="rotate(90 290 42.364)" fill="white" fill-opacity="0.9"/>
<rect x="167.049" width="14.1213" height="41.7683" transform="rotate(90 167.049 0)" fill="white" fill-opacity="0.9"/>
</g>
</svg>
