<svg width="146" height="32" viewBox="0 0 146 32" fill="none" xmlns="http://www.w3.org/2000/svg">
<path d="M33.3049 26.2059L36.0328 6.70876C37.5525 6.55746 39.6712 6.48181 42.3888 6.48181C44.7711 6.48181 46.4208 6.86006 47.3381 7.61312C48.2554 8.36619 48.5771 9.72445 48.293 11.681C48.0877 13.0943 47.6838 14.15 47.0848 14.8446C46.4858 15.5426 45.5925 15.9484 44.4117 16.0584L44.3843 16.1994C46.9719 16.4057 48.0226 18.1594 47.5332 21.4571C47.232 23.4171 46.5954 24.7341 45.6199 25.4115C44.6444 26.0889 43.0323 26.4294 40.7836 26.4294C37.5046 26.4328 35.0129 26.3572 33.3049 26.2059ZM36.3717 24.0051L40.366 24.0326C41.9028 24.0326 42.981 23.8126 43.6005 23.369C44.22 22.9254 44.6239 22.0554 44.8087 20.7556C44.997 19.363 44.8498 18.4242 44.374 17.9428C43.8948 17.4614 42.8988 17.2138 41.3791 17.1932H37.3301L36.3717 24.0051ZM37.6381 15.0165H41.5195C42.868 15.0165 43.8401 14.7896 44.4322 14.3391C45.0243 13.8886 45.4111 13.0393 45.5993 11.7945C45.7671 10.6082 45.6165 9.82761 45.1476 9.44936C44.6786 9.07455 43.7134 8.88542 42.2519 8.88542H38.4835L37.6381 15.0165Z" fill="white"/>
<path d="M60.5326 12.4169H63.3735C62.3604 16.9009 61.0392 20.6971 59.4066 23.8057C57.9451 26.5944 56.4938 28.5716 55.0597 29.7408C53.6256 30.9099 51.9142 31.663 49.9256 32L49.4191 30.0502C50.6204 29.7683 51.6678 29.3453 52.568 28.778C53.4681 28.214 54.3307 27.3544 55.1555 26.2058H53.8891C53.4579 26.2058 53.0916 26.0889 52.7939 25.8517C52.4927 25.6178 52.3044 25.2912 52.2325 24.8751L49.5902 12.4135H52.4619L54.5429 23.5753C54.5976 23.8951 54.7859 24.0567 55.1042 24.0567H56.4836C56.5589 23.926 56.6615 23.73 56.7916 23.479C56.9217 23.2245 57.0072 23.0595 57.0449 22.9838C58.6946 19.5383 59.8584 16.0171 60.5326 12.4169Z" fill="white"/>
<path d="M68.9696 14.5351L67.8709 22.2789C67.7785 22.9391 67.8367 23.3861 68.0523 23.62C68.268 23.8572 68.7027 23.9741 69.3598 23.9741H71.4134L71.5264 26.0923C70.7015 26.3365 69.6336 26.4603 68.3193 26.4603C67.1008 26.4603 66.2246 26.1199 65.6907 25.4424C65.1567 24.765 64.9719 23.7953 65.143 22.5334L66.2691 14.5351H63.7671L64.0204 12.5579L66.5806 12.4169L67.1727 8.37646H69.8458L69.2845 12.4169H73.5047L73.2241 14.5351H68.9696Z" fill="white"/>
<path d="M84.8066 23.9191L84.9743 25.7554C83.6429 26.2815 81.757 26.5462 79.32 26.5462C76.9754 26.5462 75.3531 25.9307 74.4529 24.6963C73.5527 23.4618 73.2721 21.5465 73.6075 18.9468C73.9634 16.2922 74.6891 14.4766 75.7878 13.5069C76.883 12.5372 78.6902 12.0524 81.2025 12.0524C83.3417 12.0524 84.7929 12.4306 85.563 13.1837C86.3332 13.9367 86.6138 15.0474 86.4085 16.5192C86.1826 17.8568 85.6589 18.8231 84.834 19.4145C84.0091 20.0094 82.7427 20.3704 81.0382 20.5011L76.284 20.9241C76.2635 22.2239 76.5373 23.1042 77.0987 23.5649C77.66 24.0257 78.543 24.2561 79.741 24.2561C81.0177 24.2561 82.7051 24.1461 84.8066 23.9191ZM76.4518 18.8884L81.0382 18.4654C81.9007 18.4104 82.5305 18.2247 82.9241 17.9153C83.3177 17.6058 83.571 17.0625 83.684 16.2888C83.7969 15.405 83.6497 14.8583 83.2493 14.6485C82.8454 14.4422 82.0274 14.3391 80.7884 14.3391C79.3645 14.3391 78.3548 14.6348 77.7661 15.2297C77.1705 15.8211 76.7324 17.0418 76.4518 18.8884Z" fill="white"/>
<path d="M92.7097 6.42676L91.9499 12.1349C91.7822 13.3797 91.5357 14.4319 91.2174 15.2985C92.1176 14.3941 93.1068 13.6307 94.1849 13.0083C95.2631 12.3859 96.2625 12.0764 97.1798 12.0764C98.2682 12.0764 99.1034 12.2793 99.6818 12.6851C100.264 13.0908 100.674 13.8439 100.921 14.9443C101.164 16.0446 101.126 17.5576 100.808 19.4798C100.603 21.0238 100.312 22.2823 99.9351 23.252C99.5586 24.2217 99.0726 24.9438 98.4736 25.4149C97.8746 25.886 97.2654 26.1955 96.6459 26.3468C96.0263 26.4981 95.2288 26.5738 94.2568 26.5738C91.9704 26.5738 89.6635 26.2333 87.3361 25.5559L90.0092 6.42676H92.7097ZM91.1627 17.4476L90.2351 24.2286C91.5836 24.2836 92.5865 24.3146 93.2437 24.3146C95.0235 24.3146 96.1975 24.0292 96.7588 23.4515C97.3201 22.8772 97.7514 21.488 98.0526 19.2838C98.3162 17.231 98.3435 15.9105 98.1382 15.326C97.9328 14.7414 97.3989 14.4491 96.5363 14.4491C95.2049 14.4525 93.4148 15.4498 91.1627 17.4476Z" fill="white"/>
<path d="M114.369 26.2059H112.229L112.342 23.6613C110.693 25.5835 108.725 26.5428 106.435 26.5428C104.764 26.5428 103.642 25.9961 103.06 24.9026C102.478 23.8091 102.375 21.8869 102.752 19.1394C102.957 17.6127 103.248 16.3645 103.625 15.3948C104.001 14.4251 104.497 13.703 105.117 13.2319C105.737 12.7608 106.373 12.4444 107.03 12.2862C107.687 12.1281 108.529 12.0455 109.563 12.0455C111.795 12.0455 114.037 12.2897 116.285 12.7814L114.369 26.2059ZM112.315 21.2336L113.301 14.3941C111.576 14.3563 110.61 14.3391 110.405 14.3391C109.43 14.3391 108.69 14.3872 108.184 14.4801C107.677 14.5729 107.232 14.8136 106.849 15.2022C106.466 15.5873 106.181 16.0825 106.003 16.6843C105.826 17.286 105.651 18.1732 105.483 19.3389C105.22 21.3918 105.189 22.7122 105.384 23.2933C105.582 23.8779 106.12 24.1702 107.003 24.1702C107.865 24.1702 108.707 23.9295 109.536 23.4481C110.354 22.9735 111.285 22.2342 112.315 21.2336Z" fill="white"/>
<path d="M121.457 12.4169L121.317 15.3844C123.791 13.1631 125.958 12.049 127.813 12.049C128.977 12.049 129.856 12.3825 130.455 13.053C131.054 13.7236 131.26 14.6795 131.075 15.9209L129.613 26.2058H126.913L128.234 16.5983C128.347 15.7317 128.313 15.1437 128.135 14.8308C127.957 14.5213 127.567 14.3632 126.968 14.3632C126.198 14.3632 125.397 14.6004 124.562 15.0681C123.726 15.5392 122.635 16.3129 121.286 17.3857L120.078 26.2024H117.35L119.291 12.4134H121.457V12.4169Z" fill="white"/>
<path d="M143.058 12.4169H145.844C145.057 14.8858 143.537 16.9284 141.288 18.548C141.569 18.9812 141.85 19.528 142.134 20.1882L144.807 26.2058H141.88L139.238 19.8478C138.393 20.3017 137.308 20.8278 135.976 21.4296L135.275 26.2058H132.574L135.329 6.42676H138.057L136.818 15.6939C136.651 16.8252 136.349 17.9531 135.918 19.0844C137.698 18.2351 139.242 17.2447 140.546 16.1031C141.843 14.9649 142.681 13.7373 143.058 12.4169Z" fill="white"/>
<path d="M13.6311 20.03H0.155884V26.8007H13.6311V20.03Z" fill="white"/>
<path d="M20.3225 6.53687H6.84729V20.0748H20.3225V6.53687Z" fill="white"/>
<path d="M6.8028 0H0.248291V6.49216H6.8028V0Z" fill="white"/>
<path d="M26.7368 0H20.2747V6.49216H26.7368V0Z" fill="white"/>
</svg>
